# xmcd CD database file
#
# Track frame offsets:
#	150
#	14589
#	37448
#	56583
#	72546
#	89484
#	107961
#	131631
#
# Disc length: 2235 seconds
#
# Revision: 0
# Processed by: cddbd v1.5.1PL2 Copyright (c) Steve Scherf et al.
# Submitted via: CDex 1.51
#
DISCID=7d08b908
DTITLE=Brother Jack McDuff - Down Home Style
DYEAR=1969
DGENRE=Jazz
TTITLE0=The Vibrator
TTITLE1=Down Home Style
TTITLE2=Memphis In June
TTITLE3=Theme From Electric Surfboard
TTITLE4=It's All A Joke
TTITLE5=Butter (For Yo Popcorn)
TTITLE6=Groovin' (On A Sundy Afternoon)
TTITLE7=As She Walked Away
EXTD=YEAR: 1969
EXTT0=
EXTT1=
EXTT2=
EXTT3=
EXTT4=
EXTT5=
EXTT6=
EXTT7=
PLAYORDER=
